<svg xmlns="http://www.w3.org/2000/svg" xmlns:xlink="http://www.w3.org/1999/xlink" width="320" zoomAndPan="magnify" viewBox="0 0 240 240.749995" height="321" preserveAspectRatio="xMidYMid meet" version="1.0"><defs><clipPath id="35648abb11"><path d="M 196 44 L 206.699219 44 L 206.699219 75 L 196 75 Z M 196 44 " clip-rule="nonzero"/></clipPath><clipPath id="b9cb4adedb"><path d="M 33.628906 128 L 136 128 L 136 185 L 33.628906 185 Z M 33.628906 128 " clip-rule="nonzero"/></clipPath></defs><path fill="#e2e2d3" d="M 70.46875 46.222656 L 78.402344 19.308594 L 81.550781 20.058594 L 76.011719 44.230469 Z M 70.46875 46.222656 " fill-opacity="1" fill-rule="nonzero"/><path fill="#1c1d23" d="M 78.886719 20.140625 L 71.53125 45.097656 L 75.414062 43.703125 L 80.714844 20.574219 Z M 69.410156 47.347656 L 77.917969 18.476562 L 82.390625 19.539062 L 76.609375 44.757812 Z M 69.410156 47.347656 " fill-opacity="1" fill-rule="nonzero"/><path fill="#e2e2d3" d="M 201.714844 73.273438 L 205.910156 45.671875 L 202.726562 45.074219 L 197.519531 71.285156 Z M 201.714844 73.273438 " fill-opacity="1" fill-rule="nonzero"/><g clip-path="url(#35648abb11)"><path fill="#1c1d23" d="M 198.316406 70.886719 L 201.164062 72.238281 L 205.117188 46.234375 L 203.28125 45.886719 Z M 202.265625 74.308594 L 196.730469 71.683594 L 202.175781 44.257812 L 206.699219 45.113281 Z M 202.265625 74.308594 " fill-opacity="1" fill-rule="nonzero"/></g><path fill="#e2e2d3" d="M 126.628906 229.449219 C 119.582031 228.703125 102.390625 222.679688 97.628906 221.015625 C 96.554688 220.636719 73.941406 212.765625 71.714844 211.992188 C 71.597656 211.957031 71.535156 211.933594 71.535156 211.933594 C 71.535156 211.933594 49.035156 194.269531 55.789062 185.429688 C 59.554688 180.496094 65.707031 178.230469 70.40625 177.1875 C 74.125 176.363281 76.933594 176.304688 76.933594 176.304688 C 88.875 173.773438 132.425781 176.53125 132.425781 176.53125 C 132.425781 176.53125 134.671875 184.542969 131.523438 192.023438 C 130.757812 193.839844 126.824219 195.953125 121.3125 198.101562 C 129.164062 200.542969 135.839844 202.660156 136.625 203.050781 C 138.621094 204.050781 140.421875 217.3125 140.523438 218.570312 C 141.070312 225.195312 138.960938 230.75 126.628906 229.449219 Z M 126.628906 229.449219 " fill-opacity="1" fill-rule="nonzero"/><path fill="#ffffff" d="M 71.714844 211.992188 C 71.597656 211.953125 71.539062 211.929688 71.539062 211.929688 C 71.539062 211.929688 49.039062 194.265625 55.789062 185.429688 C 59.554688 180.496094 65.707031 178.230469 70.40625 177.183594 C 71.003906 178.054688 71.292969 178.636719 71.292969 178.636719 C 71.292969 178.636719 60.550781 180.855469 58.957031 188.105469 C 57.363281 195.355469 70.59375 205.421875 70.59375 205.421875 Z M 71.714844 211.992188 " fill-opacity="1" fill-rule="nonzero"/><path fill="#afaea0" d="M 81.191406 179.777344 C 81.191406 179.777344 92.9375 188.652344 92.195312 191.960938 C 91.449219 195.269531 108.90625 198.15625 109.371094 198.160156 C 109.839844 198.164062 121.667969 197.214844 124.253906 195.933594 C 126.839844 194.65625 126.167969 194.894531 126.167969 194.894531 L 129.972656 185.457031 C 129.972656 185.457031 122.382812 179.5 120.113281 179.300781 C 117.84375 179.101562 98.796875 183.144531 96.25 183.144531 C 93.699219 183.144531 81.191406 179.777344 81.191406 179.777344 Z M 81.191406 179.777344 " fill-opacity="1" fill-rule="nonzero"/><path fill="#1c1d23" d="M 140.746094 218.535156 C 140.878906 220.222656 140.875 221.960938 140.457031 223.675781 C 140.242188 224.535156 139.925781 225.382812 139.453125 226.160156 C 138.980469 226.933594 138.363281 227.625 137.648438 228.183594 C 136.203125 229.308594 134.460938 229.847656 132.769531 230.121094 C 131.0625 230.394531 129.355469 230.402344 127.675781 230.300781 C 126 230.210938 124.300781 229.933594 122.671875 229.59375 C 121.039062 229.238281 119.425781 228.839844 117.824219 228.398438 C 114.621094 227.53125 111.453125 226.558594 108.304688 225.546875 C 102 223.527344 95.777344 221.289062 89.539062 219.132812 L 70.824219 212.621094 L 70.738281 212.59375 L 70.621094 212.507812 C 68.660156 211.097656 66.839844 209.570312 65.035156 207.988281 C 63.238281 206.402344 61.523438 204.714844 59.894531 202.933594 C 58.28125 201.140625 56.742188 199.246094 55.433594 197.148438 C 54.78125 196.097656 54.195312 194.984375 53.691406 193.816406 C 53.21875 192.625 52.855469 191.351562 52.742188 189.988281 C 52.625 188.636719 52.820312 187.140625 53.488281 185.84375 C 53.820312 185.210938 54.25 184.578125 54.648438 184.121094 C 54.847656 183.871094 55.058594 183.632812 55.277344 183.398438 C 55.492188 183.164062 55.707031 182.925781 55.941406 182.710938 C 57.75 180.914062 59.894531 179.53125 62.132812 178.453125 C 64.375 177.375 66.726562 176.597656 69.113281 176.039062 C 70.304688 175.757812 71.511719 175.539062 72.722656 175.367188 C 73.945312 175.203125 75.128906 175.078125 76.421875 175.035156 L 76.179688 175.0625 C 78.578125 174.640625 80.929688 174.414062 83.265625 174.292969 C 84.433594 174.246094 85.605469 174.15625 86.769531 174.140625 L 90.265625 174.078125 C 94.921875 174.054688 99.566406 174.148438 104.203125 174.285156 C 106.523438 174.367188 108.839844 174.441406 111.15625 174.546875 C 113.476562 174.648438 115.789062 174.785156 118.105469 174.910156 C 122.734375 175.179688 127.355469 175.476562 131.984375 175.859375 L 132.492188 175.902344 L 132.613281 176.371094 C 132.917969 177.566406 133.097656 178.71875 133.234375 179.90625 C 133.355469 181.085938 133.433594 182.273438 133.40625 183.460938 C 133.394531 185.835938 133.039062 188.222656 132.335938 190.511719 C 132.171875 191.089844 131.925781 191.644531 131.726562 192.207031 C 131.6875 192.335938 131.578125 192.527344 131.496094 192.683594 C 131.40625 192.847656 131.296875 192.972656 131.199219 193.117188 C 130.984375 193.382812 130.761719 193.625 130.523438 193.835938 C 129.582031 194.691406 128.546875 195.296875 127.507812 195.878906 C 125.417969 197.015625 123.253906 197.917969 121.078125 198.777344 L 121.03125 197.460938 L 128.742188 199.878906 L 132.59375 201.109375 L 134.515625 201.746094 L 135.480469 202.078125 L 135.972656 202.257812 C 136.136719 202.324219 136.296875 202.371094 136.535156 202.507812 C 136.8125 202.675781 136.960938 202.859375 137.101562 203.03125 L 137.285156 203.289062 L 137.429688 203.542969 C 137.617188 203.878906 137.757812 204.210938 137.890625 204.542969 C 138.148438 205.203125 138.351562 205.863281 138.539062 206.523438 C 138.90625 207.847656 139.199219 209.171875 139.464844 210.5 C 139.730469 211.828125 139.964844 213.160156 140.179688 214.492188 C 140.394531 215.835938 140.597656 217.140625 140.746094 218.535156 Z M 139.347656 218.648438 C 139.214844 217.375 139.007812 216.023438 138.800781 214.710938 C 138.589844 213.390625 138.359375 212.074219 138.101562 210.769531 C 137.835938 209.464844 137.550781 208.164062 137.195312 206.898438 C 137.019531 206.265625 136.828125 205.636719 136.59375 205.046875 C 136.476562 204.757812 136.351562 204.46875 136.210938 204.21875 C 136.089844 203.960938 135.886719 203.738281 135.839844 203.710938 C 135.789062 203.675781 135.625 203.613281 135.480469 203.558594 L 135.019531 203.390625 L 134.078125 203.066406 L 132.167969 202.433594 L 128.328125 201.203125 L 120.625 198.789062 L 118.738281 198.199219 L 120.578125 197.472656 C 122.722656 196.628906 124.851562 195.734375 126.84375 194.652344 C 127.828125 194.101562 128.808594 193.511719 129.582031 192.804688 C 129.78125 192.628906 129.949219 192.441406 130.101562 192.257812 C 130.164062 192.160156 130.25 192.070312 130.296875 191.976562 C 130.339844 191.875 130.394531 191.820312 130.441406 191.667969 C 130.625 191.144531 130.859375 190.632812 131.007812 190.089844 C 131.667969 187.953125 132.003906 185.703125 132.019531 183.441406 C 132.042969 182.3125 131.96875 181.179688 131.851562 180.054688 C 131.726562 178.941406 131.542969 177.792969 131.273438 176.746094 L 131.902344 177.253906 C 127.285156 177.074219 122.65625 176.898438 118.03125 176.765625 L 111.097656 176.601562 C 108.785156 176.539062 106.472656 176.507812 104.164062 176.464844 C 99.542969 176.414062 94.921875 176.40625 90.316406 176.511719 C 88.015625 176.59375 85.714844 176.660156 83.433594 176.816406 C 81.148438 176.953125 78.890625 177.203125 76.726562 177.597656 L 76.601562 177.621094 L 76.484375 177.628906 C 75.410156 177.671875 74.230469 177.800781 73.105469 177.964844 C 71.972656 178.136719 70.84375 178.355469 69.730469 178.617188 C 67.503906 179.144531 65.332031 179.875 63.304688 180.855469 C 61.285156 181.839844 59.394531 183.074219 57.847656 184.625 C 57.085938 185.378906 56.308594 186.289062 55.910156 187.042969 C 55.480469 187.851562 55.335938 188.800781 55.414062 189.796875 C 55.488281 190.792969 55.769531 191.816406 56.148438 192.835938 C 56.558594 193.847656 57.054688 194.847656 57.628906 195.820312 C 58.792969 197.761719 60.171875 199.621094 61.660156 201.402344 C 64.648438 204.953125 67.996094 208.292969 71.488281 211.40625 L 71.285156 211.296875 L 71.289062 211.296875 L 90.003906 217.808594 C 96.25 219.96875 102.460938 222.199219 108.734375 224.214844 C 111.871094 225.21875 115.023438 226.1875 118.195312 227.046875 C 121.371094 227.886719 124.546875 228.722656 127.761719 228.902344 C 129.375 229 130.992188 228.988281 132.550781 228.738281 C 134.101562 228.488281 135.613281 228 136.789062 227.078125 C 137.375 226.621094 137.871094 226.0625 138.257812 225.429688 C 138.644531 224.796875 138.914062 224.082031 139.097656 223.339844 C 139.460938 221.851562 139.476562 220.246094 139.347656 218.648438 Z M 139.347656 218.648438 " fill-opacity="1" fill-rule="nonzero"/><path fill="#afaea0" d="M 113.648438 195.820312 C 113.648438 195.820312 72.953125 188.207031 71.953125 188.109375 C 71.40625 188.054688 71.699219 191.644531 73.054688 194.695312 C 74.171875 197.210938 76.355469 199.285156 76.355469 199.285156 L 85.050781 201.382812 C 85.050781 201.382812 92.414062 202.28125 93.160156 202.84375 C 93.90625 203.40625 113.648438 195.820312 113.648438 195.820312 Z M 113.648438 195.820312 " fill-opacity="1" fill-rule="nonzero"/><path fill="#e2e2d3" d="M 150.136719 225.929688 C 144.242188 234.8125 135.441406 240.496094 128.441406 236.90625 C 125.457031 235.375 124.160156 232.8125 123.65625 230.386719 C 122.972656 227.121094 123.722656 224.089844 123.722656 224.089844 C 126.597656 214.566406 154.640625 203.675781 154.640625 203.675781 C 154.640625 203.675781 154.757812 204.769531 154.78125 206.539062 C 154.84375 210.960938 154.351562 219.589844 150.136719 225.929688 Z M 150.136719 225.929688 " fill-opacity="1" fill-rule="nonzero"/><path fill="#afaea0" d="M 150.136719 225.929688 C 144.242188 234.8125 135.441406 240.496094 128.441406 236.90625 C 125.457031 235.375 124.160156 232.8125 123.65625 230.386719 L 124.25 229.890625 L 124.25 229.472656 C 124.25 229.472656 128.441406 230.417969 132.84375 227.824219 C 137.242188 225.230469 152.238281 205.769531 152.542969 205.570312 C 152.625 205.511719 153.523438 205.921875 154.78125 206.539062 C 154.84375 210.960938 154.351562 219.589844 150.136719 225.929688 Z M 150.136719 225.929688 " fill-opacity="1" fill-rule="nonzero"/><path fill="#1c1d23" d="M 122.902344 223.867188 C 123.472656 222.128906 124.492188 220.789062 125.59375 219.570312 C 126.703125 218.363281 127.925781 217.296875 129.195312 216.316406 C 131.738281 214.359375 134.449219 212.679688 137.210938 211.125 C 139.980469 209.574219 142.808594 208.148438 145.675781 206.8125 C 148.539062 205.464844 151.429688 204.199219 154.386719 203.027344 L 155.25 202.683594 L 155.335938 203.605469 C 155.542969 204.984375 155.625 206.332031 155.671875 207.699219 C 155.734375 209.0625 155.6875 210.425781 155.617188 211.792969 C 155.433594 214.527344 155 217.257812 154.210938 219.925781 L 153.910156 220.921875 L 153.539062 221.902344 L 153.164062 222.882812 L 152.257812 224.789062 L 151.714844 225.703125 L 151.167969 226.613281 L 150.582031 227.46875 C 148.992188 229.722656 147.175781 231.832031 145.097656 233.695312 C 143.015625 235.542969 140.644531 237.136719 137.953125 238.15625 C 136.605469 238.640625 135.175781 239 133.703125 239.054688 C 132.234375 239.132812 130.730469 238.914062 129.339844 238.40625 C 128.640625 238.148438 127.980469 237.820312 127.347656 237.4375 C 126.722656 237.039062 126.125 236.585938 125.59375 236.058594 C 124.535156 235.003906 123.730469 233.707031 123.25 232.332031 C 122.753906 230.957031 122.53125 229.527344 122.492188 228.113281 C 122.472656 227.40625 122.496094 226.703125 122.5625 226 C 122.59375 225.652344 122.636719 225.304688 122.691406 224.953125 C 122.71875 224.78125 122.746094 224.605469 122.78125 224.429688 L 122.832031 224.167969 Z M 124.542969 224.316406 L 124.464844 224.734375 L 124.394531 225.203125 C 124.351562 225.515625 124.320312 225.832031 124.296875 226.148438 C 124.25 226.78125 124.242188 227.417969 124.273438 228.050781 C 124.332031 229.308594 124.558594 230.546875 124.996094 231.6875 C 125.421875 232.828125 126.09375 233.851562 126.953125 234.667969 C 127.382812 235.074219 127.871094 235.417969 128.382812 235.726562 C 128.90625 236.023438 129.457031 236.277344 130.023438 236.46875 C 132.308594 237.25 134.835938 236.960938 137.144531 236.042969 C 139.460938 235.117188 141.578125 233.625 143.472656 231.890625 C 145.382812 230.167969 147.078125 228.1875 148.5625 226.058594 L 149.109375 225.253906 L 149.589844 224.4375 L 150.074219 223.625 L 150.910156 221.914062 L 151.265625 221.023438 L 151.617188 220.128906 L 151.914062 219.210938 C 152.011719 218.90625 152.121094 218.601562 152.210938 218.292969 L 152.460938 217.355469 C 152.640625 216.734375 152.773438 216.097656 152.902344 215.460938 C 153.1875 214.195312 153.375 212.898438 153.542969 211.601562 C 153.859375 209.011719 154.007812 206.351562 153.945312 203.75 L 154.894531 204.328125 C 152 205.484375 149.117188 206.753906 146.289062 208.097656 C 143.460938 209.449219 140.675781 210.886719 137.964844 212.4375 C 135.257812 214 132.621094 215.671875 130.1875 217.578125 C 128.980469 218.535156 127.832031 219.558594 126.820312 220.675781 C 126.558594 220.949219 126.332031 221.242188 126.101562 221.535156 C 125.855469 221.820312 125.664062 222.128906 125.460938 222.433594 C 125.242188 222.730469 125.101562 223.058594 124.929688 223.371094 C 124.835938 223.527344 124.785156 223.683594 124.726562 223.84375 Z M 124.542969 224.316406 " fill-opacity="1" fill-rule="nonzero"/><path fill="#afaea0" d="M 168.988281 198.785156 C 166.464844 214.160156 111.777344 227.578125 104.539062 229.292969 C 104.027344 229.410156 103.75 229.472656 103.75 229.472656 L 100.777344 222.957031 L 91.453125 202.527344 C 91.453125 202.527344 92.144531 202.371094 93.328125 202.085938 C 99.867188 200.5 121.382812 194.964844 123.269531 190.402344 C 125.492188 185.011719 117.246094 176.035156 117.246094 176.035156 L 159.539062 171.84375 C 159.539062 171.84375 161.683594 173.691406 163.972656 177.054688 C 167.121094 181.699219 170.550781 189.238281 168.988281 198.785156 Z M 168.988281 198.785156 " fill-opacity="1" fill-rule="nonzero"/><path fill="#e2e2d3" d="M 169.378906 194.28125 C 169.367188 195.730469 169.246094 197.230469 168.988281 198.785156 C 166.464844 214.160156 111.777344 227.578125 104.539062 229.292969 C 104.664062 229.019531 104.78125 228.746094 104.894531 228.46875 C 104.972656 228.269531 105.046875 228.070312 105.117188 227.871094 C 105.195312 227.644531 105.273438 227.417969 105.34375 227.1875 C 105.476562 226.753906 105.59375 226.308594 105.691406 225.863281 C 105.722656 225.710938 105.757812 225.5625 105.785156 225.414062 C 105.808594 225.285156 105.832031 225.160156 105.855469 225.035156 C 105.875 224.925781 105.886719 224.816406 105.90625 224.707031 C 105.925781 224.582031 105.941406 224.457031 105.957031 224.332031 C 105.984375 224.121094 106.007812 223.910156 106.027344 223.699219 C 106.042969 223.554688 106.050781 223.410156 106.058594 223.265625 C 106.074219 223.066406 106.085938 222.875 106.089844 222.683594 C 106.09375 222.511719 106.097656 222.34375 106.097656 222.175781 C 106.097656 222.007812 106.09375 221.84375 106.089844 221.679688 C 106.089844 221.53125 106.078125 221.378906 106.070312 221.230469 L 104.703125 215.40625 C 122.121094 209.417969 146.386719 200.054688 149.640625 195.488281 C 153.878906 189.539062 152.035156 181.015625 152.035156 181.015625 L 163.972656 177.050781 C 166.609375 180.945312 169.441406 186.859375 169.378906 194.28125 Z M 169.378906 194.28125 " fill-opacity="1" fill-rule="nonzero"/><path fill="#ffffff" d="M 169.378906 194.28125 C 169.367188 195.730469 169.246094 197.230469 168.988281 198.785156 C 166.464844 214.160156 111.777344 227.578125 104.539062 229.292969 C 104.664062 229.019531 104.78125 228.746094 104.894531 228.46875 C 104.972656 228.269531 105.046875 228.070312 105.117188 227.871094 C 105.410156 227.53125 105.738281 227.261719 106.097656 227.066406 C 106.097656 227.066406 155.890625 209.203125 162.4375 202.871094 C 165.519531 199.898438 167.8125 196.761719 169.378906 194.28125 Z M 169.378906 194.28125 " fill-opacity="1" fill-rule="nonzero"/><path fill="#1c1d23" d="M 92.078125 202.835938 C 96.269531 211.664062 100.371094 220.363281 104.386719 229.183594 L 103.59375 228.792969 C 107.769531 227.734375 111.945312 226.601562 116.089844 225.394531 C 120.230469 224.179688 124.363281 222.9375 128.460938 221.578125 C 132.554688 220.230469 136.613281 218.773438 140.628906 217.234375 C 144.640625 215.679688 148.605469 214.003906 152.429688 212.085938 C 156.242188 210.167969 159.96875 208.023438 163.183594 205.367188 C 164.757812 204.027344 166.226562 202.53125 167.136719 200.8125 C 167.363281 200.386719 167.558594 199.949219 167.695312 199.503906 C 167.785156 199.285156 167.820312 199.058594 167.875 198.832031 C 167.933594 198.625 167.960938 198.34375 168 198.09375 C 168.074219 197.578125 168.152344 197.0625 168.1875 196.542969 L 168.257812 195.765625 L 168.292969 194.984375 C 168.707031 186.65625 165 178.28125 159.085938 172.371094 L 159.613281 172.539062 L 117.320312 176.730469 L 117.765625 175.5625 C 119.210938 177.191406 120.488281 178.902344 121.632812 180.742188 C 122.75 182.582031 123.765625 184.546875 124.195312 186.777344 C 124.300781 187.332031 124.363281 187.90625 124.347656 188.488281 C 124.347656 189.070312 124.246094 189.667969 124.070312 190.246094 L 123.917969 190.671875 C 123.84375 190.824219 123.773438 190.992188 123.679688 191.125 C 123.511719 191.40625 123.308594 191.636719 123.101562 191.859375 C 122.6875 192.292969 122.242188 192.640625 121.785156 192.960938 C 119.949219 194.222656 117.980469 195.085938 116.007812 195.914062 C 112.050781 197.527344 107.996094 198.804688 103.921875 199.996094 C 101.886719 200.585938 99.839844 201.148438 97.789062 201.683594 L 94.707031 202.46875 L 93.164062 202.847656 L 92.386719 203.03125 L 92 203.121094 L 91.808594 203.167969 L 91.710938 203.191406 L 91.660156 203.199219 L 91.636719 203.207031 C 91.59375 203.21875 91.796875 203.167969 91.867188 203.101562 C 91.960938 203.027344 92.039062 202.929688 92.078125 202.835938 Z M 90.824219 202.21875 C 90.871094 202.128906 90.957031 202.027344 91.0625 201.953125 C 91.140625 201.886719 91.351562 201.832031 91.316406 201.84375 L 91.34375 201.835938 L 91.390625 201.828125 L 91.484375 201.804688 L 91.679688 201.757812 L 92.0625 201.667969 L 92.832031 201.484375 L 94.367188 201.109375 L 97.433594 200.328125 C 99.472656 199.796875 101.507812 199.242188 103.53125 198.652344 C 107.570312 197.46875 111.597656 196.199219 115.472656 194.621094 C 117.394531 193.820312 119.320312 192.957031 120.976562 191.820312 C 121.382812 191.535156 121.769531 191.226562 122.085938 190.894531 C 122.238281 190.730469 122.386719 190.558594 122.484375 190.390625 C 122.546875 190.304688 122.574219 190.222656 122.621094 190.140625 L 122.730469 189.820312 C 123.003906 188.960938 123 187.988281 122.816406 187.027344 C 122.445312 185.09375 121.503906 183.226562 120.4375 181.472656 C 119.351562 179.722656 118.085938 178.039062 116.730469 176.507812 L 115.8125 175.476562 L 117.175781 175.339844 L 159.46875 171.148438 L 159.761719 171.113281 L 159.996094 171.316406 C 161.714844 172.8125 163.132812 174.480469 164.441406 176.277344 C 165.730469 178.078125 166.875 179.992188 167.773438 182.03125 C 169.59375 186.085938 170.566406 190.574219 170.414062 195.058594 L 170.386719 195.898438 L 170.316406 196.734375 C 170.28125 197.292969 170.203125 197.847656 170.125 198.398438 C 170.0625 198.925781 169.949219 199.578125 169.761719 200.152344 C 169.582031 200.738281 169.339844 201.292969 169.0625 201.824219 C 167.945312 203.945312 166.3125 205.589844 164.621094 207.058594 C 162.910156 208.507812 161.082031 209.773438 159.195312 210.90625 C 157.308594 212.046875 155.371094 213.082031 153.414062 214.054688 C 149.488281 215.992188 145.464844 217.671875 141.398438 219.222656 C 137.335938 220.78125 133.210938 222.15625 129.066406 223.460938 C 120.777344 226.054688 112.398438 228.296875 103.90625 230.152344 L 103.902344 230.152344 L 103.347656 230.28125 L 103.113281 229.761719 C 98.925781 220.621094 94.832031 211.359375 90.824219 202.21875 Z M 90.824219 202.21875 " fill-opacity="1" fill-rule="nonzero"/><path fill="#e2e2d3" d="M 80.03125 42.347656 L 72.355469 88.945312 C 72.355469 88.945312 68.757812 87.277344 65.746094 85.101562 C 64.605469 84.277344 63.550781 83.378906 62.808594 82.476562 C 60.109375 79.183594 63.554688 54.785156 65.207031 50.59375 C 65.992188 48.585938 69.425781 46.613281 72.789062 45.101562 L 72.792969 45.097656 C 76.449219 43.449219 80.03125 42.347656 80.03125 42.347656 Z M 80.03125 42.347656 " fill-opacity="1" fill-rule="nonzero"/><path fill="#afaea0" d="M 80.03125 42.347656 L 72.355469 88.945312 C 72.355469 88.945312 68.757812 87.277344 65.746094 85.101562 C 65.800781 81.808594 65.949219 77.867188 66.257812 73.210938 C 67.457031 54.964844 72.789062 45.101562 72.789062 45.101562 L 72.792969 45.097656 C 76.449219 43.449219 80.03125 42.347656 80.03125 42.347656 Z M 80.03125 42.347656 " fill-opacity="1" fill-rule="nonzero"/><path fill="#1c1d23" d="M 72.058594 89.578125 C 71.773438 89.445312 65.035156 86.300781 62.265625 82.921875 C 59.257812 79.253906 62.960938 54.390625 64.554688 50.339844 C 66.277344 45.960938 78.441406 42.105469 79.824219 41.683594 L 80.238281 43.015625 C 76.660156 44.117188 67.109375 47.671875 65.855469 50.847656 C 64.011719 55.535156 61.042969 79.226562 63.347656 82.035156 C 65.914062 85.164062 72.582031 88.28125 72.648438 88.308594 Z M 72.058594 89.578125 " fill-opacity="1" fill-rule="nonzero"/><path fill="#e2e2d3" d="M 198.980469 105.980469 C 198.410156 106.789062 194.207031 107.335938 190.480469 107.660156 C 188.78125 107.808594 187.179688 107.917969 186.066406 107.976562 C 185.105469 108.03125 184.507812 108.0625 184.507812 108.0625 L 193.132812 67.0625 C 193.132812 67.0625 204.53125 69.996094 204.832031 72.117188 C 205.128906 74.242188 200.03125 104.480469 198.980469 105.980469 Z M 198.980469 105.980469 " fill-opacity="1" fill-rule="nonzero"/><path fill="#afaea0" d="M 201.035156 69.753906 C 201.035156 69.753906 197.25 96.328125 194.207031 102.3125 C 193.117188 104.453125 192.027344 106.566406 190.480469 107.660156 C 188.78125 107.808594 187.179688 107.917969 186.066406 107.976562 C 188.007812 104.1875 191.808594 96.742188 192.03125 96 C 192.332031 95.003906 193.53125 91.609375 193.53125 91.609375 L 194.800781 68.296875 Z M 201.035156 69.753906 " fill-opacity="1" fill-rule="nonzero"/><path fill="#1c1d23" d="M 193.503906 67.652344 C 190.773438 81.238281 188.039062 94.703125 185.191406 108.207031 L 184.476562 107.363281 C 187.042969 107.183594 189.625 106.976562 192.171875 106.675781 C 193.445312 106.519531 194.71875 106.355469 195.957031 106.117188 C 196.566406 106 197.183594 105.863281 197.722656 105.683594 C 197.847656 105.636719 197.984375 105.589844 198.085938 105.539062 C 198.128906 105.515625 198.195312 105.488281 198.222656 105.46875 C 198.238281 105.453125 198.292969 105.425781 198.28125 105.429688 C 198.257812 105.433594 198.25 105.488281 198.253906 105.453125 C 198.253906 105.425781 198.257812 105.453125 198.28125 105.367188 C 198.324219 105.234375 198.371094 105.121094 198.410156 104.964844 C 198.734375 103.792969 198.992188 102.511719 199.246094 101.257812 L 199.980469 97.464844 C 200.453125 94.929688 200.902344 92.386719 201.332031 89.839844 C 202.167969 84.75 203.0625 79.644531 203.710938 74.558594 C 203.785156 73.925781 203.863281 73.289062 203.90625 72.691406 C 203.914062 72.558594 203.925781 72.371094 203.921875 72.316406 L 203.921875 72.25 C 203.921875 72.238281 203.917969 72.265625 203.921875 72.269531 C 203.921875 72.277344 203.9375 72.289062 203.933594 72.285156 C 203.925781 72.277344 203.921875 72.269531 203.917969 72.261719 C 203.875 72.183594 203.695312 71.992188 203.480469 71.839844 C 203.050781 71.515625 202.5 71.21875 201.949219 70.949219 C 201.394531 70.679688 200.816406 70.429688 200.226562 70.195312 C 199.050781 69.726562 197.847656 69.285156 196.628906 68.882812 C 196.019531 68.679688 195.410156 68.480469 194.796875 68.292969 L 193.875 68.007812 L 193.414062 67.867188 L 193.183594 67.800781 L 193.070312 67.765625 L 193.011719 67.75 L 192.996094 67.746094 C 193.015625 67.75 192.933594 67.730469 193.035156 67.753906 C 193.1875 67.785156 193.386719 67.738281 193.503906 67.652344 Z M 192.765625 66.464844 C 192.898438 66.382812 193.117188 66.34375 193.289062 66.378906 L 193.371094 66.398438 L 193.429688 66.410156 L 193.550781 66.441406 L 194.265625 66.617188 L 195.214844 66.859375 C 195.847656 67.027344 196.476562 67.203125 197.101562 67.386719 C 198.359375 67.753906 199.609375 68.144531 200.847656 68.609375 C 201.46875 68.84375 202.085938 69.089844 202.703125 69.375 C 203.320312 69.660156 203.929688 69.957031 204.546875 70.394531 C 204.855469 70.621094 205.175781 70.867188 205.480469 71.328125 L 205.589844 71.519531 C 205.625 71.582031 205.652344 71.679688 205.679688 71.761719 C 205.703125 71.84375 205.730469 71.945312 205.738281 72.011719 L 205.75 72.191406 C 205.769531 72.457031 205.753906 72.59375 205.75 72.785156 C 205.714844 73.476562 205.65625 74.125 205.578125 74.777344 C 205.277344 77.375 204.898438 79.933594 204.507812 82.5 C 204.125 85.0625 203.691406 87.617188 203.242188 90.167969 C 202.796875 92.722656 202.332031 95.273438 201.839844 97.820312 C 201.589844 99.09375 201.34375 100.367188 201.066406 101.636719 C 200.78125 102.914062 200.511719 104.167969 200.125 105.480469 C 200.082031 105.636719 200.011719 105.824219 199.945312 106 C 199.929688 106.070312 199.847656 106.234375 199.78125 106.359375 C 199.730469 106.480469 199.585938 106.632812 199.453125 106.757812 C 199.324219 106.871094 199.230469 106.917969 199.113281 106.996094 C 199.007812 107.058594 198.921875 107.09375 198.820312 107.140625 C 198.628906 107.230469 198.457031 107.289062 198.277344 107.347656 C 197.582031 107.566406 196.925781 107.695312 196.265625 107.8125 C 194.949219 108.039062 193.652344 108.1875 192.347656 108.304688 C 189.742188 108.535156 187.148438 108.6875 184.539062 108.761719 L 183.636719 108.800781 L 183.820312 107.921875 C 186.722656 94.082031 189.742188 80.214844 192.765625 66.464844 Z M 192.765625 66.464844 " fill-opacity="1" fill-rule="nonzero"/><path fill="#e2e2d3" d="M 181.449219 152.921875 C 181.636719 165.199219 163.460938 176.773438 158.738281 178.324219 C 153.402344 180.085938 149.15625 180.898438 145.730469 181.074219 C 138.304688 181.457031 134.679688 178.878906 131.941406 176.554688 C 127.941406 173.160156 128.945312 172.542969 128.945312 172.542969 C 128.945312 172.542969 108.746094 159.167969 107.75 159.167969 C 106.746094 159.167969 72.757812 153.980469 72.554688 153.378906 C 72.355469 152.78125 65.082031 149.183594 65.082031 149.183594 C 65.082031 149.183594 76.457031 116.308594 114.09375 119.453125 C 151.738281 122.597656 167.789062 130.679688 178.738281 145.347656 C 180.601562 147.847656 181.417969 150.398438 181.449219 152.921875 Z M 181.449219 152.921875 " fill-opacity="1" fill-rule="nonzero"/><path fill="#ffffff" d="M 181.449219 152.921875 C 181.636719 165.199219 163.460938 176.773438 158.738281 178.324219 C 153.402344 180.085938 149.15625 180.898438 145.730469 181.074219 L 147.84375 175.894531 C 147.84375 175.894531 167.4375 168.351562 173.335938 162.957031 C 176.183594 160.355469 179.152344 156.359375 181.449219 152.921875 Z M 181.449219 152.921875 " fill-opacity="1" fill-rule="nonzero"/><path fill="#afaea0" d="M 97.40625 119.113281 C 97.40625 119.113281 102.25 132.921875 124.894531 134.867188 C 147.539062 136.8125 155.121094 124.683594 155.121094 124.683594 Z M 97.40625 119.113281 " fill-opacity="1" fill-rule="nonzero"/><path fill="#afaea0" d="M 75.140625 142.246094 C 75.140625 142.246094 82.796875 132.261719 90.824219 131.445312 C 98.851562 130.628906 97.148438 130.328125 95.75 132.921875 C 94.351562 135.515625 93.550781 136.84375 93.550781 136.84375 L 91.453125 140.382812 Z M 75.140625 142.246094 " fill-opacity="1" fill-rule="nonzero"/><path fill="#afaea0" d="M 153.070312 138.523438 C 153.070312 138.523438 169.039062 144.515625 170.835938 147.601562 C 172.636719 150.6875 172.714844 151.1875 172.714844 151.1875 L 145.941406 160.863281 L 133.152344 153.5 C 133.152344 153.5 137.941406 145.695312 146.339844 145.695312 C 154.738281 145.695312 156.648438 145.769531 156.648438 145.769531 Z M 153.070312 138.523438 " fill-opacity="1" fill-rule="nonzero"/><path fill="#1c1d23" d="M 65.726562 148.917969 C 65.691406 148.820312 65.613281 148.707031 65.519531 148.636719 C 65.382812 148.542969 65.414062 148.574219 65.421875 148.574219 L 65.453125 148.589844 L 65.511719 148.617188 L 65.878906 148.800781 L 66.367188 149.046875 L 67.335938 149.539062 L 69.265625 150.542969 C 69.910156 150.886719 70.550781 151.230469 71.1875 151.59375 C 71.507812 151.777344 71.824219 151.964844 72.144531 152.167969 C 72.304688 152.269531 72.464844 152.371094 72.632812 152.496094 C 72.714844 152.554688 72.808594 152.628906 72.902344 152.714844 C 72.929688 152.734375 72.960938 152.769531 72.992188 152.800781 L 73.035156 152.847656 C 73.046875 152.863281 73.0625 152.878906 73.09375 152.925781 C 73.121094 152.964844 73.148438 153.007812 73.167969 153.054688 L 73.199219 153.117188 C 73.207031 153.136719 73.230469 153.1875 73.199219 153.105469 C 73.164062 153.003906 73.082031 152.902344 72.996094 152.84375 C 72.933594 152.804688 72.949219 152.8125 72.945312 152.808594 L 72.941406 152.808594 C 72.941406 152.804688 72.925781 152.800781 72.929688 152.800781 L 72.96875 152.816406 C 72.992188 152.824219 73.027344 152.835938 73.066406 152.84375 L 73.300781 152.90625 L 73.808594 153.027344 L 74.855469 153.246094 L 76.972656 153.644531 L 81.234375 154.386719 C 86.929688 155.34375 92.640625 156.242188 98.351562 157.113281 C 101.207031 157.546875 104.070312 157.984375 106.917969 158.371094 L 107.449219 158.4375 L 107.695312 158.464844 L 107.804688 158.476562 C 107.921875 158.492188 108.046875 158.519531 108.148438 158.554688 L 108.453125 158.6875 L 108.710938 158.820312 C 108.886719 158.910156 109.039062 159 109.207031 159.089844 C 109.851562 159.453125 110.472656 159.828125 111.09375 160.203125 C 112.335938 160.957031 113.5625 161.726562 114.785156 162.503906 C 119.667969 165.609375 124.503906 168.773438 129.328125 171.957031 L 129.3125 173.132812 L 129.316406 173.132812 C 129.484375 173.011719 129.457031 173.003906 129.496094 172.949219 C 129.515625 172.925781 129.523438 172.875 129.53125 172.867188 C 129.535156 172.824219 129.539062 172.835938 129.535156 172.835938 C 129.542969 172.867188 129.5625 172.941406 129.601562 173.023438 C 129.683594 173.199219 129.816406 173.398438 129.960938 173.589844 C 130.261719 173.976562 130.613281 174.363281 130.996094 174.730469 C 131.75 175.464844 132.585938 176.164062 133.429688 176.820312 C 135.101562 178.144531 136.976562 179.113281 139 179.671875 C 141.023438 180.238281 143.164062 180.386719 145.300781 180.28125 C 145.832031 180.285156 146.367188 180.207031 146.898438 180.164062 C 147.433594 180.117188 147.96875 180.074219 148.5 179.972656 L 150.097656 179.726562 L 151.683594 179.394531 C 153.800781 178.945312 155.886719 178.328125 157.953125 177.664062 C 158.5 177.503906 158.929688 177.34375 159.414062 177.121094 C 159.894531 176.910156 160.371094 176.671875 160.839844 176.417969 C 161.785156 175.917969 162.714844 175.371094 163.625 174.789062 C 167.273438 172.472656 170.683594 169.746094 173.652344 166.640625 C 175.132812 165.085938 176.492188 163.421875 177.625 161.636719 C 178.75 159.851562 179.679688 157.9375 180.117188 155.933594 C 180.574219 153.933594 180.554688 151.867188 179.972656 149.9375 C 179.824219 149.457031 179.621094 148.992188 179.445312 148.519531 C 179.203125 148.070312 178.984375 147.613281 178.730469 147.167969 C 178.441406 146.746094 178.164062 146.316406 177.863281 145.890625 L 176.855469 144.625 C 174.167969 141.25 171.089844 138.207031 167.636719 135.644531 C 164.183594 133.082031 160.40625 130.957031 156.417969 129.277344 C 148.429688 125.925781 139.875 123.933594 131.246094 122.605469 C 129.085938 122.28125 126.925781 121.933594 124.75 121.699219 L 121.492188 121.304688 C 120.40625 121.167969 119.3125 121.089844 118.222656 120.980469 C 116.046875 120.777344 113.851562 120.535156 111.710938 120.457031 C 110.632812 120.371094 109.554688 120.40625 108.476562 120.40625 C 107.398438 120.378906 106.328125 120.480469 105.253906 120.539062 C 96.675781 121.105469 88.285156 124.109375 81.496094 129.34375 C 78.070312 131.917969 75.050781 135.011719 72.382812 138.386719 C 71.050781 140.074219 69.835938 141.859375 68.722656 143.707031 C 68.15625 144.625 67.625 145.566406 67.121094 146.519531 C 66.875 146.996094 66.628906 147.476562 66.398438 147.964844 L 66.054688 148.691406 L 65.890625 149.054688 L 65.8125 149.238281 L 65.777344 149.328125 C 65.820312 149.238281 65.8125 149.027344 65.726562 148.917969 Z M 64.433594 149.449219 C 64.375 149.277344 64.390625 149.003906 64.453125 148.847656 L 64.488281 148.746094 L 64.554688 148.542969 L 64.695312 148.144531 L 64.992188 147.351562 C 65.195312 146.832031 65.421875 146.320312 65.644531 145.804688 C 66.105469 144.789062 66.589844 143.78125 67.117188 142.792969 C 68.179688 140.828125 69.382812 138.933594 70.699219 137.121094 C 73.335938 133.496094 76.492188 130.222656 80.078125 127.488281 C 87.234375 121.972656 96.128906 118.832031 105.089844 118.257812 C 106.210938 118.195312 107.332031 118.097656 108.453125 118.121094 C 109.574219 118.125 110.699219 118.09375 111.816406 118.183594 C 114.070312 118.273438 116.25 118.519531 118.449219 118.726562 C 119.546875 118.839844 120.648438 118.921875 121.746094 119.0625 L 125.035156 119.464844 C 127.230469 119.703125 129.414062 120.0625 131.601562 120.390625 C 140.335938 121.757812 149.046875 123.789062 157.289062 127.265625 C 161.398438 129.015625 165.324219 131.253906 168.914062 133.949219 C 172.503906 136.644531 175.707031 139.84375 178.464844 143.359375 L 179.503906 144.675781 C 179.832031 145.148438 180.152344 145.644531 180.476562 146.128906 C 180.765625 146.640625 181.023438 147.171875 181.292969 147.695312 C 181.5 148.25 181.730469 148.796875 181.902344 149.363281 C 182.582031 151.648438 182.578125 154.109375 182.042969 156.382812 C 181.523438 158.671875 180.480469 160.761719 179.261719 162.675781 C 178.03125 164.59375 176.585938 166.335938 175.03125 167.957031 C 171.910156 171.1875 168.375 173.953125 164.578125 176.3125 C 163.628906 176.902344 162.660156 177.464844 161.65625 177.980469 C 161.15625 178.242188 160.648438 178.488281 160.117188 178.71875 C 159.601562 178.953125 158.996094 179.164062 158.484375 179.308594 C 156.363281 179.96875 154.222656 180.578125 152.027344 181.019531 C 151.480469 181.128906 150.933594 181.246094 150.382812 181.347656 L 148.71875 181.589844 C 148.167969 181.683594 147.605469 181.722656 147.042969 181.769531 C 146.480469 181.8125 145.925781 181.886719 145.355469 181.875 C 143.105469 181.960938 140.800781 181.789062 138.585938 181.144531 C 136.371094 180.519531 134.285156 179.398438 132.523438 177.976562 C 131.640625 177.273438 130.796875 176.550781 129.984375 175.746094 C 129.578125 175.347656 129.1875 174.917969 128.820312 174.4375 C 128.640625 174.1875 128.464844 173.933594 128.316406 173.601562 C 128.242188 173.4375 128.175781 173.25 128.140625 173.011719 C 128.128906 172.875 128.117188 172.746094 128.15625 172.570312 C 128.167969 172.492188 128.214844 172.378906 128.257812 172.292969 C 128.332031 172.183594 128.34375 172.117188 128.566406 171.953125 L 128.570312 171.953125 L 128.554688 173.125 C 123.734375 169.945312 118.898438 166.78125 114.03125 163.6875 C 112.8125 162.914062 111.59375 162.144531 110.367188 161.398438 C 109.75 161.027344 109.136719 160.65625 108.519531 160.3125 C 108.371094 160.230469 108.210938 160.136719 108.066406 160.0625 L 107.84375 159.949219 L 107.652344 159.863281 C 107.664062 159.875 107.707031 159.882812 107.730469 159.875 C 107.769531 159.867188 107.699219 159.867188 107.664062 159.867188 L 107.570312 159.859375 L 107.28125 159.828125 L 106.734375 159.757812 C 103.855469 159.367188 101.003906 158.929688 98.140625 158.5 C 92.421875 157.625 86.710938 156.726562 81.003906 155.765625 L 76.722656 155.023438 L 74.582031 154.617188 L 73.503906 154.394531 L 72.957031 154.265625 L 72.667969 154.183594 C 72.621094 154.171875 72.570312 154.15625 72.507812 154.132812 L 72.421875 154.105469 C 72.378906 154.089844 72.328125 154.066406 72.285156 154.042969 L 72.25 154.023438 C 72.238281 154.015625 72.238281 154.023438 72.167969 153.976562 C 72.066406 153.898438 71.96875 153.78125 71.914062 153.664062 C 71.878906 153.578125 71.894531 153.617188 71.894531 153.628906 L 71.910156 153.664062 C 71.917969 153.6875 71.933594 153.710938 71.949219 153.730469 C 71.972656 153.757812 71.96875 153.757812 71.96875 153.753906 L 71.964844 153.753906 C 71.960938 153.753906 71.96875 153.753906 71.957031 153.746094 C 71.917969 153.710938 71.867188 153.671875 71.804688 153.625 C 71.679688 153.535156 71.539062 153.441406 71.394531 153.351562 C 71.105469 153.167969 70.800781 152.988281 70.492188 152.8125 C 69.875 152.460938 69.242188 152.117188 68.609375 151.78125 L 66.695312 150.785156 L 65.734375 150.296875 L 65.253906 150.054688 L 65.011719 149.933594 L 64.890625 149.875 L 64.832031 149.84375 L 64.800781 149.828125 C 64.796875 149.820312 64.820312 149.847656 64.671875 149.75 C 64.566406 149.671875 64.480469 149.554688 64.433594 149.449219 Z M 64.433594 149.449219 " fill-opacity="1" fill-rule="nonzero"/><path fill="#ffffff" d="M 35.511719 130.007812 L 44.257812 123.839844 C 44.257812 123.839844 57.671875 132.371094 68.210938 141.726562 L 77.753906 142.4375 C 77.753906 142.4375 94.949219 138.011719 116.382812 145.011719 L 137.792969 174.535156 L 134.140625 180.125 L 96.25 168.25 L 67.304688 158.667969 L 46.757812 142.949219 Z M 35.511719 130.007812 " fill-opacity="1" fill-rule="nonzero"/><path fill="#1c1d23" d="M 67.636719 158.042969 L 96.46875 167.585938 L 133.847656 179.300781 L 136.941406 174.558594 L 115.949219 145.605469 C 95.074219 138.855469 78.097656 143.074219 77.925781 143.117188 L 77.8125 143.144531 L 67.921875 142.40625 L 67.746094 142.25 C 58.371094 133.929688 46.566406 126.167969 44.273438 124.683594 L 36.542969 130.132812 L 47.238281 142.441406 Z M 134.441406 180.949219 L 96.039062 168.917969 L 66.972656 159.296875 L 46.230469 143.410156 L 34.472656 129.882812 L 44.238281 123 L 44.632812 123.253906 C 44.765625 123.339844 58.0625 131.824219 68.5 141.050781 L 77.695312 141.734375 C 79.257812 141.367188 96.140625 137.667969 116.601562 144.351562 L 116.816406 144.421875 L 138.640625 174.515625 Z M 134.441406 180.949219 " fill-opacity="1" fill-rule="nonzero"/><path fill="#e2e2d3" d="M 190.695312 98.589844 C 189.53125 100.972656 188.148438 103.28125 186.53125 105.480469 C 182.015625 111.632812 176.234375 116.585938 169.796875 120.382812 C 153.421875 130.039062 132.796875 132.246094 117.945312 127.835938 C 96.089844 121.34375 81.910156 110.0625 75.140625 96.148438 C 73.167969 92.09375 71.816406 87.8125 71.097656 83.363281 C 68.585938 67.886719 73.628906 50.355469 85.949219 33.027344 C 109.449219 0 176.933594 14.863281 189.734375 44.007812 C 196.199219 58.722656 199.421875 80.78125 190.695312 98.589844 Z M 190.695312 98.589844 " fill-opacity="1" fill-rule="nonzero"/><path fill="#afaea0" d="M 187.132812 96.097656 C 186.890625 102.542969 182.746094 108.941406 180.195312 112.960938 C 178.421875 115.75 176.234375 116.582031 169.796875 120.382812 C 153.421875 130.039062 132.796875 132.246094 117.945312 127.835938 C 96.089844 121.34375 81.910156 110.0625 75.140625 96.148438 C 73.167969 92.09375 71.816406 87.8125 71.097656 83.363281 C 75.667969 63.097656 86.328125 32.035156 109.148438 28.441406 C 143.34375 23.050781 173.183594 30.648438 182.433594 56.28125 C 186.535156 67.652344 187.660156 82.101562 187.132812 96.097656 Z M 187.132812 96.097656 " fill-opacity="1" fill-rule="nonzero"/><path fill="#1c1d23" d="M 185.617188 104.8125 C 190.191406 98.523438 192.964844 91.035156 194.085938 83.335938 C 194.667969 79.480469 194.828125 75.566406 194.699219 71.660156 C 194.632812 69.707031 194.46875 67.757812 194.253906 65.8125 C 194.023438 63.871094 193.714844 61.9375 193.34375 60.015625 C 192.582031 56.175781 191.546875 52.386719 190.207031 48.714844 C 189.878906 47.792969 189.515625 46.886719 189.152344 45.980469 L 188.578125 44.632812 L 187.972656 43.34375 C 187.117188 41.644531 186.089844 40.027344 184.933594 38.5 C 182.613281 35.4375 179.78125 32.746094 176.699219 30.375 C 173.59375 28.023438 170.25 25.960938 166.746094 24.210938 C 159.738281 20.6875 152.175781 18.238281 144.441406 16.785156 C 136.707031 15.34375 128.761719 14.898438 120.945312 15.722656 C 113.148438 16.554688 105.429688 18.703125 98.691406 22.664062 C 95.347656 24.664062 92.246094 27.082031 89.621094 29.953125 C 88.292969 31.386719 87.09375 32.890625 86 34.542969 C 84.886719 36.175781 83.742188 37.785156 82.742188 39.488281 C 82.230469 40.332031 81.703125 41.164062 81.203125 42.015625 L 79.785156 44.613281 L 79.074219 45.910156 L 78.429688 47.242188 L 77.152344 49.90625 C 76.753906 50.808594 76.394531 51.726562 76.011719 52.632812 L 75.449219 54 C 75.265625 54.457031 75.121094 54.929688 74.957031 55.390625 L 74 58.183594 L 73.210938 61.027344 C 73.085938 61.503906 72.9375 61.972656 72.828125 62.453125 L 72.53125 63.894531 L 72.230469 65.339844 C 72.132812 65.820312 72.019531 66.300781 71.96875 66.789062 L 71.566406 69.707031 C 71.484375 70.191406 71.46875 70.683594 71.4375 71.171875 L 71.339844 72.640625 C 71.144531 76.550781 71.273438 80.503906 72.046875 84.347656 C 72.171875 85.320312 72.449219 86.261719 72.679688 87.214844 L 73.039062 88.636719 C 73.148438 89.117188 73.339844 89.570312 73.488281 90.035156 L 73.960938 91.425781 C 74.128906 91.886719 74.25 92.363281 74.464844 92.804688 L 75.636719 95.5 C 77.304688 99.042969 79.449219 102.367188 81.96875 105.378906 C 87.011719 111.425781 93.449219 116.207031 100.386719 119.953125 C 103.863281 121.828125 107.507812 123.386719 111.207031 124.773438 L 114.003906 125.769531 C 114.941406 126.082031 115.890625 126.367188 116.835938 126.664062 L 118.25 127.105469 L 119.675781 127.472656 C 120.148438 127.589844 120.621094 127.722656 121.101562 127.832031 L 122.542969 128.113281 C 126.398438 128.855469 130.339844 129.167969 134.273438 129.136719 C 138.207031 129.101562 142.148438 128.75 146.019531 128.035156 C 149.894531 127.332031 153.710938 126.324219 157.417969 125.019531 C 158.335938 124.671875 159.269531 124.355469 160.175781 123.984375 L 162.886719 122.828125 C 164.660156 121.980469 166.433594 121.132812 168.121094 120.140625 C 174.957031 116.3125 181.027344 111.109375 185.617188 104.8125 Z M 187.449219 106.152344 C 182.589844 112.695312 176.21875 118.035156 169.125 121.921875 C 165.59375 123.898438 161.882812 125.550781 158.050781 126.839844 C 154.230469 128.148438 150.304688 129.144531 146.328125 129.828125 C 142.351562 130.523438 138.3125 130.84375 134.277344 130.847656 C 130.242188 130.839844 126.199219 130.488281 122.226562 129.691406 L 120.742188 129.386719 C 120.25 129.269531 119.761719 129.128906 119.269531 129.003906 L 117.800781 128.609375 L 116.367188 128.152344 C 115.414062 127.84375 114.453125 127.546875 113.503906 127.222656 L 110.675781 126.1875 C 109.726562 125.863281 108.808594 125.449219 107.875 125.074219 C 106.949219 124.691406 106.015625 124.320312 105.109375 123.878906 C 104.199219 123.453125 103.277344 123.054688 102.378906 122.609375 L 99.695312 121.226562 C 92.636719 117.402344 86.058594 112.5 80.886719 106.273438 C 78.3125 103.164062 76.074219 99.761719 74.34375 96.109375 L 73.121094 93.332031 C 72.902344 92.878906 72.773438 92.386719 72.597656 91.914062 L 72.105469 90.480469 C 71.949219 89.996094 71.75 89.53125 71.636719 89.035156 L 71.261719 87.570312 C 71.019531 86.589844 70.730469 85.617188 70.59375 84.613281 C 69.785156 80.648438 69.632812 76.578125 69.820312 72.554688 L 69.914062 71.042969 C 69.949219 70.542969 69.960938 70.035156 70.042969 69.539062 L 70.441406 66.539062 C 70.496094 66.039062 70.609375 65.546875 70.707031 65.054688 L 71.011719 63.574219 L 71.308594 62.089844 C 71.417969 61.601562 71.566406 61.117188 71.695312 60.632812 L 72.492188 57.71875 L 73.460938 54.859375 C 73.625 54.386719 73.773438 53.902344 73.953125 53.4375 L 74.519531 52.039062 C 74.898438 51.105469 75.261719 50.167969 75.65625 49.242188 L 76.941406 46.515625 L 77.585938 45.152344 L 78.296875 43.824219 L 79.722656 41.171875 C 80.222656 40.300781 80.753906 39.449219 81.269531 38.585938 C 82.269531 36.84375 83.421875 35.199219 84.535156 33.53125 C 84.824219 33.117188 85.082031 32.691406 85.390625 32.285156 L 86.300781 31.058594 C 86.941406 30.265625 87.574219 29.464844 88.273438 28.722656 C 91 25.691406 94.230469 23.132812 97.707031 21.015625 C 104.710938 16.824219 112.695312 14.558594 120.714844 13.644531 C 128.757812 12.738281 136.910156 13.140625 144.851562 14.5625 C 152.792969 16 160.570312 18.449219 167.835938 22.035156 C 171.472656 23.824219 174.957031 25.9375 178.222656 28.375 C 181.46875 30.835938 184.488281 33.652344 187.007812 36.925781 C 188.265625 38.5625 189.390625 40.3125 190.316406 42.179688 L 190.976562 43.59375 L 191.570312 44.992188 C 191.945312 45.933594 192.320312 46.878906 192.660156 47.832031 C 194.039062 51.640625 195.097656 55.554688 195.878906 59.523438 C 197.414062 67.460938 197.785156 75.667969 196.527344 83.707031 C 196.214844 85.710938 195.808594 87.707031 195.269531 89.671875 C 195.027344 90.660156 194.707031 91.625 194.40625 92.597656 L 193.898438 94.039062 C 193.734375 94.523438 193.550781 94.996094 193.355469 95.46875 C 191.863281 99.261719 189.859375 102.855469 187.449219 106.152344 Z M 187.449219 106.152344 " fill-opacity="1" fill-rule="nonzero"/><path fill="#1c1d23" d="M 169.796875 120.382812 C 153.421875 130.039062 132.796875 132.246094 117.945312 127.835938 C 96.089844 121.34375 81.910156 110.0625 75.140625 96.148438 C 75.46875 83.148438 78.503906 57.226562 96.550781 45.800781 C 121.144531 30.234375 168.839844 43.410156 175.734375 63.464844 C 181.371094 79.84375 174.867188 107.996094 169.796875 120.382812 Z M 169.796875 120.382812 " fill-opacity="1" fill-rule="nonzero"/><path fill="#ff2e57" d="M 35.511719 130.007812 C 35.511719 130.007812 54.558594 136.066406 64.003906 149.238281 C 64.003906 149.238281 75.429688 150.0625 78.351562 151.183594 C 78.351562 151.183594 95.75 147.09375 110.148438 149.835938 L 134.144531 180.125 C 134.144531 180.125 102.25 179.324219 98.351562 183.515625 L 87.851562 183.515625 C 87.851562 183.515625 80.203125 177.378906 69.707031 179.625 C 69.703125 179.628906 41.210938 137.574219 35.511719 130.007812 Z M 35.511719 130.007812 " fill-opacity="1" fill-rule="nonzero"/><g clip-path="url(#b9cb4adedb)"><path fill="#1c1d23" d="M 88.089844 182.820312 L 98.070312 182.820312 C 102.410156 179.140625 125.953125 179.277344 132.671875 179.394531 L 109.761719 150.476562 C 95.730469 147.886719 78.683594 151.824219 78.511719 151.867188 L 78.304688 151.914062 L 78.101562 151.835938 C 75.308594 150.765625 64.070312 149.945312 63.957031 149.933594 L 63.628906 149.910156 L 63.4375 149.644531 C 56.078125 139.386719 42.632812 133.449219 37.429688 131.445312 C 44.8125 141.691406 67.332031 174.878906 70.023438 178.847656 C 79.671875 176.984375 86.792969 181.855469 88.089844 182.820312 Z M 98.65625 184.21875 L 87.605469 184.21875 L 87.414062 184.0625 C 87.339844 184.003906 79.882812 178.164062 69.851562 180.308594 L 69.390625 180.40625 L 69.125 180.019531 C 68.839844 179.597656 40.574219 137.894531 34.953125 130.429688 L 33.632812 128.679688 L 35.722656 129.34375 C 36.503906 129.59375 54.851562 135.542969 64.382812 148.566406 C 66.265625 148.710938 75.417969 149.445312 78.398438 150.460938 C 80.410156 150.011719 96.742188 146.570312 110.277344 149.152344 L 110.53125 149.203125 L 135.617188 180.863281 L 134.125 180.824219 C 121.429688 180.507812 101.5625 181.089844 98.859375 183.996094 Z M 98.65625 184.21875 " fill-opacity="1" fill-rule="nonzero"/></g><path fill="#e2e2d3" d="M 63.40625 166.605469 C 62.09375 167.894531 60.578125 168.570312 58.972656 168.785156 C 54.722656 169.351562 49.878906 166.652344 46.757812 163.460938 C 41.84375 158.4375 41.414062 152.164062 43.183594 148.136719 C 43.730469 146.875 44.496094 145.832031 45.410156 145.121094 C 50.109375 141.445312 53.847656 147.367188 58.453125 150.992188 C 63.628906 155.082031 68.207031 161.886719 63.40625 166.605469 Z M 63.40625 166.605469 " fill-opacity="1" fill-rule="nonzero"/><path fill="#afaea0" d="M 63.40625 166.605469 C 62.09375 167.894531 60.578125 168.570312 58.972656 168.785156 C 59.328125 166.53125 58.773438 164.183594 57.355469 162.292969 C 57.320312 162.25 57.289062 162.203125 57.257812 162.164062 C 54.410156 158.378906 45.5625 150.292969 43.183594 148.136719 C 43.730469 146.875 44.496094 145.832031 45.410156 145.121094 C 50.109375 141.445312 53.847656 147.367188 58.453125 150.992188 C 63.628906 155.082031 68.207031 161.886719 63.40625 166.605469 Z M 63.40625 166.605469 " fill-opacity="1" fill-rule="nonzero"/><path fill="#1c1d23" d="M 45.867188 145.703125 C 44.832031 146.566406 44.089844 147.820312 43.640625 149.160156 C 43.191406 150.507812 43.023438 151.957031 43.097656 153.390625 C 43.21875 156.273438 44.382812 159.054688 46.160156 161.328125 C 46.363281 161.628906 46.628906 161.882812 46.867188 162.15625 C 47.117188 162.417969 47.339844 162.703125 47.609375 162.949219 C 48.125 163.464844 48.675781 163.945312 49.246094 164.402344 C 50.394531 165.304688 51.640625 166.09375 52.957031 166.691406 C 54.269531 167.296875 55.652344 167.730469 57.039062 167.855469 C 58.425781 167.984375 59.804688 167.785156 61.003906 167.179688 C 61.296875 167.015625 61.578125 166.828125 61.867188 166.660156 C 62.136719 166.460938 62.390625 166.230469 62.65625 166.015625 C 63.160156 165.558594 63.582031 165.027344 63.898438 164.457031 C 64.546875 163.3125 64.683594 161.945312 64.40625 160.59375 C 64.136719 159.242188 63.5 157.917969 62.707031 156.699219 C 61.910156 155.476562 60.949219 154.335938 59.890625 153.296875 C 59.359375 152.773438 58.804688 152.273438 58.230469 151.800781 C 57.648438 151.328125 57.023438 150.800781 56.457031 150.277344 C 55.308594 149.226562 54.230469 148.132812 53.109375 147.132812 C 52.550781 146.632812 51.972656 146.167969 51.371094 145.765625 C 50.773438 145.359375 50.152344 145.023438 49.511719 144.835938 C 48.871094 144.644531 48.226562 144.625 47.609375 144.78125 C 47 144.945312 46.40625 145.269531 45.867188 145.703125 Z M 44.953125 144.542969 C 45.617188 144.03125 46.398438 143.597656 47.273438 143.386719 C 48.144531 143.171875 49.09375 143.230469 49.917969 143.492188 C 50.753906 143.742188 51.492188 144.148438 52.160156 144.605469 C 52.835938 145.058594 53.449219 145.5625 54.042969 146.078125 C 55.226562 147.101562 56.324219 148.175781 57.457031 149.175781 C 58.027344 149.683594 58.582031 150.132812 59.199219 150.617188 C 59.816406 151.105469 60.414062 151.625 60.988281 152.171875 C 62.132812 153.257812 63.183594 154.460938 64.089844 155.785156 C 64.984375 157.117188 65.746094 158.585938 66.109375 160.238281 C 66.289062 161.0625 66.363281 161.933594 66.273438 162.804688 C 66.1875 163.671875 65.917969 164.535156 65.511719 165.308594 C 65.101562 166.085938 64.5625 166.777344 63.945312 167.363281 C 63.621094 167.640625 63.308594 167.929688 62.96875 168.191406 C 62.605469 168.417969 62.242188 168.65625 61.867188 168.867188 C 60.320312 169.664062 58.546875 169.917969 56.882812 169.773438 C 55.207031 169.632812 53.613281 169.140625 52.140625 168.46875 C 50.664062 167.785156 49.304688 166.910156 48.050781 165.910156 C 47.425781 165.40625 46.824219 164.875 46.253906 164.304688 C 45.960938 164.03125 45.714844 163.707031 45.441406 163.40625 C 45.179688 163.101562 44.898438 162.8125 44.675781 162.46875 C 42.730469 159.890625 41.480469 156.722656 41.414062 153.457031 C 41.371094 151.832031 41.59375 150.195312 42.148438 148.644531 C 42.703125 147.101562 43.59375 145.621094 44.953125 144.542969 Z M 44.953125 144.542969 " fill-opacity="1" fill-rule="nonzero"/><path fill="#e2e2d3" d="M 139.140625 184.714844 C 136.789062 185.457031 134.257812 185.613281 131.792969 185.308594 C 124.140625 184.355469 117.125 178.925781 118.144531 172.589844 C 119.5 164.207031 125.640625 165.402344 125.640625 165.402344 C 125.640625 165.402344 123.472656 160.015625 126.507812 155.972656 C 127.484375 154.675781 129.050781 153.949219 130.910156 153.746094 C 134.863281 153.289062 140.125 155.15625 143.792969 158.816406 C 149.191406 164.207031 151.140625 180.925781 139.140625 184.714844 Z M 139.140625 184.714844 " fill-opacity="1" fill-rule="nonzero"/><path fill="#afaea0" d="M 144.917969 161.214844 C 144.917969 161.214844 136.871094 164.882812 136.019531 168.546875 C 135.167969 172.214844 129.09375 171.109375 129.09375 171.109375 C 129.09375 171.109375 125.417969 153.613281 128.570312 153.746094 C 131.71875 153.878906 131.71875 153.878906 131.71875 153.878906 L 136.738281 154.484375 C 136.738281 154.484375 144.570312 159.363281 144.917969 161.214844 Z M 144.917969 161.214844 " fill-opacity="1" fill-rule="nonzero"/><path fill="#afaea0" d="M 131.792969 185.308594 C 124.140625 184.355469 117.125 178.925781 118.144531 172.589844 C 119.5 164.207031 125.640625 165.402344 125.640625 165.402344 C 125.640625 165.402344 123.472656 160.015625 126.507812 155.972656 C 127.484375 154.675781 129.050781 153.949219 130.910156 153.746094 C 132.210938 157.023438 134.183594 162.105469 135.617188 166.308594 C 136.902344 170.082031 134.960938 178.726562 131.792969 185.308594 Z M 131.792969 185.308594 " fill-opacity="1" fill-rule="nonzero"/><path fill="#1c1d23" d="M 126.183594 165.851562 C 126.085938 165.957031 125.894531 166.066406 125.703125 166.089844 C 125.617188 166.101562 125.496094 166.089844 125.472656 166.085938 L 125.453125 166.085938 L 125.371094 166.078125 C 125.320312 166.066406 125.265625 166.066406 125.207031 166.066406 C 125.09375 166.054688 124.980469 166.054688 124.867188 166.058594 C 124.640625 166.058594 124.410156 166.085938 124.179688 166.113281 C 123.953125 166.152344 123.726562 166.183594 123.507812 166.253906 C 123.285156 166.304688 123.074219 166.394531 122.863281 166.476562 C 122.027344 166.824219 121.300781 167.398438 120.742188 168.128906 L 120.523438 168.398438 L 120.34375 168.699219 C 120.230469 168.90625 120.089844 169.089844 119.996094 169.308594 C 119.8125 169.746094 119.589844 170.164062 119.472656 170.640625 L 119.257812 171.332031 L 119.113281 172.054688 C 119.070312 172.296875 119.011719 172.539062 118.976562 172.773438 C 118.957031 173.003906 118.925781 173.234375 118.910156 173.464844 C 118.824219 175.316406 119.570312 177.128906 120.753906 178.625 C 121.933594 180.132812 123.539062 181.332031 125.273438 182.253906 C 128.761719 184.085938 132.878906 184.84375 136.726562 184.210938 C 137.683594 184.046875 138.636719 183.824219 139.523438 183.460938 C 140.414062 183.117188 141.273438 182.6875 142.035156 182.125 C 143.585938 181.046875 144.78125 179.515625 145.589844 177.785156 C 145.988281 176.914062 146.289062 175.996094 146.515625 175.054688 C 146.726562 174.105469 146.851562 173.132812 146.910156 172.15625 C 147.007812 170.199219 146.820312 168.207031 146.351562 166.296875 C 145.898438 164.382812 145.148438 162.53125 144.109375 160.945312 C 143.585938 160.152344 142.976562 159.5 142.222656 158.84375 C 141.492188 158.199219 140.703125 157.617188 139.867188 157.105469 C 138.199219 156.09375 136.351562 155.332031 134.449219 154.953125 C 132.570312 154.554688 130.558594 154.539062 128.929688 155.25 C 128.527344 155.429688 128.152344 155.648438 127.832031 155.921875 C 127.507812 156.199219 127.242188 156.503906 126.988281 156.902344 C 126.484375 157.664062 126.109375 158.519531 125.910156 159.4375 C 125.707031 160.355469 125.660156 161.328125 125.738281 162.296875 C 125.777344 162.78125 125.84375 163.265625 125.9375 163.746094 C 125.984375 163.988281 126.035156 164.230469 126.097656 164.464844 C 126.125 164.582031 126.15625 164.699219 126.191406 164.816406 L 126.242188 164.988281 L 126.269531 165.070312 C 126.269531 165.101562 126.273438 165.027344 126.324219 165.285156 C 126.355469 165.492188 126.277344 165.730469 126.183594 165.851562 Z M 125.105469 164.960938 C 125 165.050781 124.910156 165.257812 124.929688 165.429688 C 124.972656 165.664062 124.960938 165.558594 124.953125 165.558594 L 124.914062 165.457031 L 124.839844 165.261719 C 124.792969 165.128906 124.75 165 124.707031 164.867188 C 124.621094 164.605469 124.550781 164.34375 124.480469 164.074219 C 124.34375 163.546875 124.246094 163.003906 124.179688 162.457031 C 124.042969 161.363281 124.039062 160.234375 124.234375 159.117188 C 124.429688 158 124.828125 156.890625 125.457031 155.910156 C 125.742188 155.421875 126.144531 154.921875 126.605469 154.515625 C 127.0625 154.097656 127.585938 153.777344 128.125 153.519531 C 128.664062 153.257812 129.226562 153.070312 129.792969 152.941406 C 130.359375 152.808594 130.929688 152.730469 131.496094 152.699219 C 132.632812 152.625 133.753906 152.714844 134.84375 152.914062 C 137.03125 153.320312 139.089844 154.160156 140.980469 155.277344 C 141.921875 155.847656 142.816406 156.492188 143.652344 157.210938 C 144.472656 157.910156 145.304688 158.78125 145.929688 159.71875 C 147.195312 161.589844 147.988281 163.667969 148.492188 165.785156 C 149 167.90625 149.199219 170.09375 149.078125 172.277344 C 149.011719 173.371094 148.863281 174.460938 148.617188 175.539062 C 148.359375 176.613281 148.003906 177.671875 147.535156 178.6875 C 146.585938 180.707031 145.132812 182.5625 143.257812 183.847656 C 142.339844 184.511719 141.320312 185.023438 140.277344 185.421875 C 139.234375 185.835938 138.148438 186.089844 137.058594 186.265625 C 132.675781 186.914062 128.207031 186.007812 124.367188 183.9375 C 122.460938 182.886719 120.671875 181.53125 119.304688 179.746094 C 118.625 178.855469 118.054688 177.859375 117.683594 176.773438 C 117.304688 175.695312 117.132812 174.523438 117.207031 173.371094 C 117.230469 173.085938 117.273438 172.800781 117.304688 172.515625 C 117.355469 172.242188 117.417969 171.980469 117.476562 171.710938 L 117.65625 170.910156 L 117.917969 170.121094 C 118.066406 169.585938 118.335938 169.085938 118.570312 168.574219 C 118.6875 168.320312 118.863281 168.085938 119.011719 167.839844 L 119.242188 167.480469 L 119.519531 167.148438 C 120.238281 166.25 121.210938 165.507812 122.308594 165.09375 C 122.585938 164.992188 122.859375 164.890625 123.144531 164.832031 C 123.429688 164.753906 123.714844 164.71875 124.003906 164.679688 C 124.292969 164.652344 124.578125 164.628906 124.871094 164.640625 C 125.015625 164.640625 125.164062 164.644531 125.308594 164.660156 C 125.382812 164.664062 125.457031 164.667969 125.535156 164.679688 L 125.648438 164.695312 L 125.679688 164.703125 C 125.667969 164.699219 125.5625 164.691406 125.492188 164.707031 C 125.328125 164.730469 125.171875 164.851562 125.105469 164.960938 Z M 125.105469 164.960938 " fill-opacity="1" fill-rule="nonzero"/><path fill="#1c1d23" d="M 134.394531 154.484375 L 132.558594 153.03125 C 132.863281 152.644531 140.261719 143.53125 156.632812 143.429688 L 156.648438 145.769531 C 141.460938 145.863281 134.460938 154.394531 134.394531 154.484375 Z M 134.394531 154.484375 " fill-opacity="1" fill-rule="nonzero"/><path fill="#1c1d23" d="M 156.515625 147.429688 C 154.121094 142.363281 151.707031 140.472656 151.804688 140.492188 L 153.070312 138.523438 C 153.230469 138.625 156.734375 141.960938 158.441406 147.601562 Z M 156.515625 147.429688 " fill-opacity="1" fill-rule="nonzero"/><path fill="#1c1d23" d="M 93.25 141.332031 L 90.910156 141.207031 C 90.964844 140.179688 91.378906 135 94.074219 133.5625 L 95.179688 135.628906 C 94.046875 136.230469 93.359375 139.386719 93.25 141.332031 Z M 93.25 141.332031 " fill-opacity="1" fill-rule="nonzero"/><path fill="#1c1d23" d="M 98.988281 234.863281 C 96.738281 236.328125 94.167969 236.917969 91.546875 236.5625 C 81.003906 235.144531 70.941406 214.070312 71.304688 209.015625 C 71.785156 202.234375 76.800781 200.121094 77.015625 200.035156 L 77.089844 199.996094 C 78.488281 199.234375 80.148438 198.847656 81.976562 198.847656 C 88.347656 198.847656 96.730469 203.542969 102.855469 213.378906 C 104.628906 216.226562 105.40625 219.257812 105.40625 222.167969 C 105.40625 227.476562 102.8125 232.355469 98.988281 234.863281 Z M 104.039062 212.640625 C 95.628906 199.128906 83.421875 194.976562 76.449219 198.753906 C 75.867188 199 70.433594 201.492188 69.902344 208.914062 C 69.515625 214.390625 79.902344 236.40625 91.359375 237.949219 C 91.917969 238.023438 92.472656 238.0625 93.027344 238.0625 C 94.21875 238.0625 95.382812 237.890625 96.507812 237.550781 C 97.640625 237.207031 98.726562 236.699219 99.75 236.027344 C 106.222656 231.792969 109.492188 221.382812 104.039062 212.640625 Z M 104.039062 212.640625 " fill-opacity="1" fill-rule="nonzero"/><path fill="#e2e2d3" d="M 114.347656 195.820312 C 114.347656 195.820312 96.425781 192.699219 92.425781 191.300781 " fill-opacity="1" fill-rule="nonzero"/><path fill="#1c1d23" d="M 114.230469 196.507812 C 113.496094 196.378906 96.203125 193.363281 92.195312 191.960938 L 92.65625 190.640625 C 96.554688 192.007812 114.289062 195.097656 114.46875 195.132812 Z M 114.230469 196.507812 " fill-opacity="1" fill-rule="nonzero"/><path fill="#e2e2d3" d="M 105.40625 222.167969 C 105.40625 227.476562 102.8125 232.355469 98.984375 234.863281 C 96.738281 236.328125 94.164062 236.917969 91.542969 236.5625 C 84.644531 235.632812 77.945312 226.28125 74.253906 218.515625 C 72.296875 214.417969 71.175781 210.765625 71.304688 209.015625 C 71.785156 202.230469 76.800781 200.121094 77.015625 200.035156 L 77.089844 199.996094 C 78.484375 199.234375 80.144531 198.847656 81.976562 198.847656 C 88.34375 198.847656 96.730469 203.542969 102.855469 213.378906 C 103.15625 213.859375 103.429688 214.347656 103.671875 214.84375 C 104.871094 217.25 105.40625 219.75 105.40625 222.167969 Z M 105.40625 222.167969 " fill-opacity="1" fill-rule="nonzero"/><path fill="#afaea0" d="M 103.671875 214.84375 L 94.898438 216.46875 C 94.898438 216.46875 88.558594 211.554688 81.191406 214.578125 C 78.722656 215.589844 76.339844 217.042969 74.253906 218.515625 C 72.296875 214.417969 71.175781 210.765625 71.304688 209.015625 C 71.785156 202.230469 76.800781 200.121094 77.015625 200.035156 L 77.089844 199.996094 C 78.484375 199.234375 80.144531 198.847656 81.976562 198.847656 C 88.34375 198.847656 96.730469 203.542969 102.855469 213.378906 C 103.15625 213.859375 103.429688 214.347656 103.671875 214.84375 Z M 103.671875 214.84375 " fill-opacity="1" fill-rule="nonzero"/><path fill="#1c1d23" d="M 79.519531 199.1875 C 82.773438 200.277344 88.855469 203.734375 94.921875 214.714844 C 98.257812 220.75 100.09375 227.261719 100.386719 234.09375 C 105.59375 229.828125 107.925781 220.9375 103.210938 213.375 C 96.132812 202.007812 86.035156 197.507812 79.519531 199.1875 Z M 99.042969 236.726562 L 99.027344 235.457031 C 98.929688 228.367188 97.136719 221.617188 93.695312 215.390625 C 85.441406 200.445312 77.179688 200.085938 77.101562 200.085938 L 74.492188 200.027344 L 76.773438 198.777344 C 83.734375 194.964844 95.972656 199.109375 104.398438 212.640625 C 109.847656 221.386719 106.582031 231.792969 100.109375 236.03125 Z M 99.042969 236.726562 " fill-opacity="1" fill-rule="nonzero"/><path fill="#e21e4d" d="M 64.003906 149.238281 L 87.851562 183.519531 L 98.347656 183.519531 L 78.351562 151.1875 C 78.351562 151.183594 74.355469 148.488281 64.003906 149.238281 Z M 64.003906 149.238281 " fill-opacity="1" fill-rule="nonzero"/><path fill="#1c1d23" d="M 88.21875 182.820312 L 97.09375 182.820312 L 77.847656 151.695312 C 77.167969 151.316406 73.417969 149.46875 65.289062 149.859375 Z M 99.605469 184.21875 L 87.484375 184.21875 L 62.730469 148.632812 L 63.957031 148.542969 C 74.425781 147.785156 78.574219 150.492188 78.746094 150.605469 L 78.871094 150.691406 Z M 99.605469 184.21875 " fill-opacity="1" fill-rule="nonzero"/><path fill="#1c1d23" d="M 171.332031 169.675781 C 168.609375 152.710938 152.328125 145.554688 152.164062 145.484375 L 152.714844 144.199219 C 152.886719 144.273438 169.871094 151.738281 172.714844 169.457031 Z M 171.332031 169.675781 " fill-opacity="1" fill-rule="nonzero"/><path fill="#1c1d23" d="M 135.832031 220.636719 L 134 220.277344 C 136.925781 205.460938 121.71875 192.628906 121.5625 192.5 L 122.757812 191.066406 C 123.421875 191.617188 138.972656 204.726562 135.832031 220.636719 Z M 135.832031 220.636719 " fill-opacity="1" fill-rule="nonzero"/><path fill="#ffffff" d="M 83.722656 73.5625 C 82.277344 73.140625 79.601562 84.695312 83.113281 95.730469 C 87.074219 108.191406 99.375 115.84375 100.511719 114.28125 C 102.171875 112.007812 92.628906 108.046875 87.101562 96.328125 C 82.394531 86.359375 85.316406 74.027344 83.722656 73.5625 Z M 83.722656 73.5625 " fill-opacity="1" fill-rule="nonzero"/><path fill="#ffffff" d="M 167.355469 81.988281 C 168.414062 81.996094 169.222656 77.789062 168.410156 73.125 C 167.546875 68.1875 164.144531 64.089844 163.199219 64.453125 C 162.53125 64.710938 163.191406 66.175781 164.558594 71.246094 C 166.472656 78.363281 166.386719 81.984375 167.355469 81.988281 Z M 167.355469 81.988281 " fill-opacity="1" fill-rule="nonzero"/><path fill="#ffffff" d="M 162 60.773438 C 161.589844 59.277344 159.253906 58.589844 158.722656 59.132812 C 158.4375 59.425781 158.675781 60.070312 158.777344 60.347656 C 159.285156 61.738281 160.988281 62.742188 161.6875 62.308594 C 162.113281 62.042969 162.136719 61.269531 162 60.773438 Z M 162 60.773438 " fill-opacity="1" fill-rule="nonzero"/></svg>